<?xml version='1.0' encoding='UTF-8'?>
<svg viewBox="-2 -8 32 32" xmlns="http://www.w3.org/2000/svg" xmlns:xlink="http://www.w3.org/1999/xlink">
  <g transform="translate(0, 0)">
    <g id="Layer_1" transform="translate(-2, -8)" style="enable-background:new 0 0 32 32">
      <g id="LinearChart">
        <path d="M27, 8C25.3, 8 24, 9.3 24, 11C24, 11.5 24.1, 11.9 24.3, 12.3L18.3, 18.3C17.9, 18.1 17.5, 18 17, 18C16.5, 18 16.1, 18.1 15.7, 18.3L13.7, 16.3C13.9, 15.9 14, 15.5 14, 15C14, 13.3 12.7, 12 11, 12C9.3, 12 8, 13.3 8, 15C8, 15.5 8.1, 15.9 8.3, 16.3L6.3, 18.3C5.9, 18.1 5.5, 18 5, 18C3.3, 18 2, 19.3 2, 21C2, 22.7 3.3, 24 5, 24C6.7, 24 8, 22.7 8, 21C8, 20.5 7.9, 20.1 7.7, 19.7L9.7, 17.7C10.1, 17.9 10.5, 18 11, 18C11.5, 18 11.9, 17.9 12.3, 17.7L14.3, 19.7C14.1, 20.1 14, 20.5 14, 21C14, 22.7 15.3, 24 17, 24C18.7, 24 20, 22.7 20, 21C20, 20.5 19.9, 20.1 19.7, 19.7L25.7, 13.7C26.1, 13.9 26.5, 14 27, 14C28.7, 14 30, 12.7 30, 11C30, 9.3 28.7, 8 27, 8zM5, 22C4.4, 22 4, 21.6 4, 21C4, 20.4 4.4, 20 5, 20C5.6, 20 6, 20.4 6, 21C6, 21.6 5.6, 22 5, 22zM11, 16C10.4, 16 10, 15.6 10, 15C10, 14.4 10.4, 14 11, 14C11.6, 14 12, 14.4 12, 15C12, 15.6 11.6, 16 11, 16zM17, 22C16.4, 22 16, 21.6 16, 21C16, 20.4 16.4, 20 17, 20C17.6, 20 18, 20.4 18, 21C18, 21.6 17.6, 22 17, 22zM27, 12C26.4, 12 26, 11.6 26, 11C26, 10.4 26.4, 10 27, 10C27.6, 10 28, 10.4 28, 11C28, 11.6 27.6, 12 27, 12z" fill="#1177D7" class="Blue" />
      </g>
    </g>
  </g>
</svg>